# File created by Blade
# Date/Time:  Thu Jan 22 19:18:16 2015
# Frame Rate: 120.000 fps
#------------------------------------------------------
:FULLY-SPECIFIED
:DEGREES
1093
root -0.472514 31.787478 -6.755261 86.689622 25.539234 -8.424168
RightUpLeg -82.796416 -4.219396 7.039357
RightLeg -6.316501 -0.000000 0.000000
RightFoot -5.755271 -13.151138 18.109674
RightToeBase 7.077303 -0.000000 -0.000000
LeftUpLeg -98.822821 28.486377 24.284434
LeftLeg 5.008087 -0.000000 -0.000000
LeftFoot 3.600657 2.302827 -27.724294
LeftToeBase 8.100243 -0.000000 -0.000000
Spine 40.375888 10.966266 -21.773469
RightShoulder -2.540598 26.051191 -50.033774
RightArm 89.557573 20.215570 41.483040
RightForeArm -24.403016 -0.000000 27.742463
RightHand 12.825732 -0.000000 3.184275
RightHandThumb1 -24.326973 -0.000000 -32.862282
LeftShoulder -0.686912 -23.818729 26.807886
LeftArm 41.269306 -25.850068 -54.825830
LeftForeArm -28.263164 -0.000000 63.394533
LeftHand -8.658019 -0.000000 -15.707071
LeftHandThumb1 -26.253704 0.000000 33.147579
Head -41.523821 -0.396102 -28.282888
1094
root -0.468167 31.788161 -6.751607 86.689756 25.540765 -8.411497
RightUpLeg -82.794737 -4.238729 7.084173
RightLeg -6.300099 -0.000000 0.000000
RightFoot -5.770459 -13.113224 18.114883
RightToeBase 7.177927 -0.000000 -0.000000
LeftUpLeg -98.820348 28.466041 24.304894
LeftLeg 5.043528 -0.000000 -0.000000
LeftFoot 3.543367 2.317808 -27.779563
LeftToeBase 8.204244 -0.000000 -0.000000
Spine 40.375063 10.941720 -21.752285
RightShoulder -2.524859 26.085914 -50.035005
RightArm 89.575293 20.186331 41.431647
RightForeArm -24.416287 -0.000000 27.657378
RightHand 12.842462 0.000000 3.226082
RightHandThumb1 -24.326973 -0.000000 -32.862282
LeftShoulder -0.712220 -23.823402 26.787571
LeftArm 41.248460 -25.807674 -54.732261
LeftForeArm -28.248532 -0.000000 63.392407
LeftHand -8.657514 -0.000000 -15.686168
LeftHandThumb1 -26.253704 0.000000 33.147579
Head -41.568705 -0.388133 -28.338312
1095
root -0.465424 31.788704 -6.749045 86.685157 25.550663 -8.397916
RightUpLeg -82.775621 -4.255731 7.067895
RightLeg -6.303294 -0.000000 0.000000
RightFoot -5.780746 -13.131352 18.140795
RightToeBase 7.164746 -0.000000 -0.000000
LeftUpLeg -98.843459 28.446011 24.285310
LeftLeg 5.066354 -0.000000 -0.000000
LeftFoot 3.581705 2.281372 -27.757538
LeftToeBase 8.150270 -0.000000 -0.000000
Spine 40.380867 10.930039 -21.710092
RightShoulder -2.508412 26.023425 -50.026976
RightArm 89.653598 20.225419 41.412782
RightForeArm -24.436342 -0.000000 27.580728
RightHand 12.793869 0.000000 3.297411
RightHandThumb1 -24.326973 -0.000000 -32.862282
LeftShoulder -0.728455 -23.822851 26.764915
LeftArm 41.257782 -25.765708 -54.661465
LeftForeArm -28.117545 0.000000 63.393597
LeftHand -8.720960 -0.000000 -15.584392
LeftHandThumb1 -26.253704 0.000000 33.147579
Head -41.604478 -0.409772 -28.379419
1096
root -0.464414 31.788660 -6.746267 86.680775 25.557382 -8.396963
RightUpLeg -82.766988 -4.256519 7.044278
RightLeg -6.292784 -0.000000 0.000000
RightFoot -5.801334 -13.155468 18.164686
RightToeBase 7.112592 -0.000000 -0.000000
LeftUpLeg -98.866939 28.441276 24.267921
LeftLeg 5.099289 -0.000000 -0.000000
LeftFoot 3.589728 2.250284 -27.762430
LeftToeBase 8.105138 -0.000000 -0.000000
Spine 40.341702 10.932852 -21.714881
RightShoulder -2.441237 26.029536 -49.972478
RightArm 89.632648 20.224225 41.354582
RightForeArm -24.414575 -0.000000 27.528412
RightHand 12.795598 -0.000000 3.322315
RightHandThumb1 -24.326973 -0.000000 -32.862282
LeftShoulder -0.716215 -23.797307 26.806899
LeftArm 41.225593 -25.763561 -54.638733
LeftForeArm -27.998692 0.000000 63.430528
LeftHand -8.821689 -0.000000 -15.542150
LeftHandThumb1 -26.253704 0.000000 33.147579
Head -41.581834 -0.382348 -28.344253
1097
root -0.463065 31.788687 -6.744438 86.671771 25.558044 -8.400416
RightUpLeg -82.754670 -4.254672 7.002975
RightLeg -6.287848 -0.000000 0.000000
RightFoot -5.818089 -13.178005 18.178511
RightToeBase 7.144470 -0.000000 -0.000000
LeftUpLeg -98.877908 28.437120 24.266200
LeftLeg 5.136153 -0.000000 -0.000000
LeftFoot 3.568366 2.252463 -27.780302
LeftToeBase 8.163364 -0.000000 -0.000000
Spine 40.318771 10.932472 -21.706681
RightShoulder -2.387200 26.058983 -49.925778
RightArm 89.634992 20.212184 41.270238
RightForeArm -24.405314 -0.000000 27.425571
RightHand 12.800719 0.000000 3.337879
RightHandThumb1 -24.326973 -0.000000 -32.862282
LeftShoulder -0.719648 -23.758509 26.803424
LeftArm 41.242950 -25.751019 -54.579910
LeftForeArm -27.927363 0.000000 63.407588
LeftHand -8.807363 -0.000000 -15.530691
LeftHandThumb1 -26.253704 0.000000 33.147579
Head -41.585410 -0.372778 -28.354399
1098
root -0.462519 31.788895 -6.742283 86.666861 25.571561 -8.399100
RightUpLeg -82.742578 -4.256517 6.971889
RightLeg -6.281448 -0.000000 0.000000
RightFoot -5.832357 -13.208106 18.173404
RightToeBase 7.148940 -0.000000 -0.000000
LeftUpLeg -98.893194 28.430332 24.273032
LeftLeg 5.167655 -0.000000 -0.000000
LeftFoot 3.562893 2.253735 -27.772973
LeftToeBase 8.156940 -0.000000 -0.000000
Spine 40.306788 10.927478 -21.682426
RightShoulder -2.358816 26.034044 -49.892128
RightArm 89.669927 20.235286 41.191166
RightForeArm -24.378447 -0.000000 27.339454
RightHand 12.793945 -0.000000 3.360990
RightHandThumb1 -24.326973 -0.000000 -32.862282
LeftShoulder -0.745261 -23.729716 26.801125
LeftArm 41.288008 -25.728547 -54.545474
LeftForeArm -27.857473 -0.000000 63.371495
LeftHand -8.822822 -0.000000 -15.542082
LeftHandThumb1 -26.253704 0.000000 33.147579
Head -41.612594 -0.374126 -28.359838
1099
root -0.461859 31.789157 -6.740488 86.661606 25.579647 -8.400466
RightUpLeg -82.736176 -4.255717 6.945850
RightLeg -6.271408 -0.000000 0.000000
RightFoot -5.842537 -13.227359 18.196772
RightToeBase 7.130739 -0.000000 -0.000000
LeftUpLeg -98.895626 28.427619 24.279644
LeftLeg 5.184882 -0.000000 -0.000000
LeftFoot 3.550454 2.254945 -27.757308
LeftToeBase 8.205067 -0.000000 -0.000000
Spine 40.298848 10.915262 -21.660210
RightShoulder -2.349492 26.038707 -49.891412
RightArm 89.702121 20.225639 41.162023
RightForeArm -24.400786 -0.000000 27.266169
RightHand 12.813471 -0.000000 3.384562
RightHandThumb1 -24.326973 -0.000000 -32.862282
LeftShoulder -0.776802 -23.722026 26.777720
LeftArm 41.312227 -25.697656 -54.470366
LeftForeArm -27.775394 0.000000 63.338213
LeftHand -8.837989 -0.000000 -15.592205
LeftHandThumb1 -26.253704 0.000000 33.147579
Head -41.641033 -0.378305 -28.401846
